<svg version="1.2" xmlns="http://www.w3.org/2000/svg" viewBox="0 0 100 100" width="100" height="100">
	<title>webshade</title>
	<style>
	</style>
	<path id="{}" fill="#fff100" aria-label="{}"  d="m41.06 71.5h1.58v3.33h-1.44q-5.76 0-7.72-1.71q-1.94-1.71-1.94-6.82v-5.53q0-3.49-1.25-4.84q-1.25-1.34-4.54-1.34h-1.41v-3.31h1.41q3.31 0 4.54-1.31q1.25-1.34 1.25-4.79v-5.55q0-5.11 1.94-6.8q1.96-1.71 7.72-1.71h1.44v3.3h-1.58q-3.26 0-4.25 1.02q-1 1.02-1 4.28v5.74q0 3.63-1.06 5.27q-1.04 1.64-3.58 2.22q2.56 0.62 3.6 2.27q1.04 1.64 1.04 5.25v5.73q0 3.26 1 4.28q0.99 1.02 4.25 1.02zm13.42 3.33v-3.33h1.62q3.24 0 4.21-0.99q0.99-1 0.99-4.31v-5.73q0-3.61 1.04-5.25q1.04-1.65 3.61-2.27q-2.57-0.58-3.61-2.22q-1.04-1.64-1.04-5.27v-5.74q0-3.28-0.99-4.28q-0.97-1.02-4.21-1.02h-1.62v-3.3h1.46q5.76 0 7.68 1.71q1.94 1.69 1.94 6.8v5.55q0 3.45 1.25 4.79q1.25 1.31 4.53 1.31h1.43v3.31h-1.43q-3.28 0-4.53 1.34q-1.25 1.35-1.25 4.84v5.53q0 5.11-1.94 6.82q-1.92 1.71-7.68 1.71z" />
</svg>